<?xml version="1.0" encoding="UTF-8"?>
<svg width="142px" height="200px" viewBox="0 0 142 200" version="1.1" xmlns="http://www.w3.org/2000/svg" xmlns:xlink="http://www.w3.org/1999/xlink">
    <!-- Generator: Sketch 41 (35326) - http://www.bohemiancoding.com/sketch -->
    <title>Avatar</title>
    <desc>Created with Sketch.</desc>
    <defs>
        <path d="M0.0505173204,0.0133532525 C0.161843038,1.23277413 0.578432078,2.52306078 1.81555641,2.70858683 C2.89015621,2.86982287 4.20279608,2.88817136 5.33153981,2.85860263 L5.33153981,0.0133532525 L0.0505173204,0.0133532525 L0.0505173204,0.0133532525 Z" id="path-1"></path>
        <path d="M0.0505173204,0.0133532525 C0.161843038,1.23277413 0.578432078,2.52306078 1.81555641,2.70858683 C2.89015621,2.86982287 4.20279608,2.88817136 5.33153981,2.85860263 L5.33153981,0.0133532525 L0.0505173204,0.0133532525 L0.0505173204,0.0133532525 Z" id="path-3"></path>
        <path d="M0.0435558091,0.0186544444 C0.149647653,1.18035374 0.546615514,2.40950189 1.7251444,2.58629188 C2.74882507,2.7398491 3.99927844,2.75732456 5.0745544,2.72916457 L5.0745544,0.0186544444 L0.0435558091,0.0186544444 L0.0435558091,0.0186544444 Z" id="path-5"></path>
    </defs>
    <g id="Page-1" stroke="none" stroke-width="1" fill="none" fill-rule="evenodd">
        <g id="Desktop-upperfold" transform="translate(-183.000000, -201.000000)">
            <g id="Group-3" transform="translate(187.000000, 204.000000)">
                <g id="Avatar">
                    <path d="M33.7185368,144.029188 C33.7185368,144.029188 27.2495341,137.252137 26.9414863,126.470466 C26.6334386,115.688795 26.6334386,168.981055 38.6473007,192.392684 C38.6473007,192.392684 -1.97526377,146.512052 0.796626877,75.8291875 C3.56851752,5.14632268 30.7755256,5.76934925 41.8663227,10.1594917 C41.8663227,10.1594917 71.3377898,-12.4591452 110.749188,13.4168656 C110.749188,13.4168656 143.075487,12.8007701 131.061625,60.2401232 C119.047763,107.679553 88.8590836,181.611013 72.8406007,192.392684 C72.8406007,192.392684 99.9488025,142.796997 94.7119908,123.698036 C94.7119908,123.698036 88.2429881,141.872853 85.1625106,144.029188 C82.0820331,146.185522 95.3280863,109.835888 88.2429881,106.447362 C81.1578899,103.058837 50.3531151,98.1300732 50.3531151,98.1300732 C50.3531151,98.1300732 28.1736773,132.939469 33.7185368,144.029188 Z" id="Fill-87" stroke="#FFFFFF" stroke-width="8" stroke-linecap="round" stroke-linejoin="round"></path>
                    <g id="avatar-elaine">
                        <g id="Group-84" transform="translate(46.517520, 108.372738)">
                            <g id="Group-80">
                                <mask id="mask-2" fill="white">
                                    <use xlink:href="#path-1"></use>
                                </mask>
                                <g id="Clip-79"></g>
                                <path d="M0.0158336542,0.917150558 C0.0158336542,0.917150558 0.901933,-0.49509434 1.62938776,0.211105121 C2.35684251,0.917150558 2.59188294,0.872791683 3.15792068,0.670789372 C3.72365037,0.468633038 5.09800539,1.60032345 5.25973046,2.20663843 C5.4213015,2.81295341 5.25973046,2.86031575 5.25973046,2.86031575 C5.25973046,2.86031575 1.07736619,4.76112437 0.0158336542,0.917150558" id="Fill-78" fill="#FFFFFF" mask="url(#mask-2)"></path>
                            </g>
                            <g id="Group-83">
                                <mask id="mask-4" fill="white">
                                    <use xlink:href="#path-3"></use>
                                </mask>
                                <g id="Clip-82"></g>
                                <path d="M0.0158336542,0.917150558 C0.0158336542,0.917150558 0.901933,-0.49509434 1.62938776,0.211105121 C2.35684251,0.917150558 2.59188294,0.872791683 3.15792068,0.670789372 C3.72365037,0.468633038 5.09800539,1.60032345 5.25973046,2.20663843 C5.4213015,2.81295341 5.25973046,2.86031575 5.25973046,2.86031575 C5.25973046,2.86031575 1.07736619,4.76112437 0.0158336542,0.917150558 Z" id="Stroke-81" stroke="#FFFFFF" mask="url(#mask-4)"></path>
                            </g>
                        </g>
                        <g id="Group-129" transform="translate(0.618406, 0.941086)">
                            <path d="M46.0172276,105.168749 C46.0172276,105.168749 45.8720601,106.087963 45.9275857,107.137482 C45.9962803,108.437982 46.3727917,109.938945 47.7147247,110.140254 C50.1398306,110.504059 53.7774894,110.140254 53.7774894,110.140254 C53.7774894,110.140254 52.2012861,103.835056 46.0172276,105.168749 Z" id="Stroke-85" stroke="#FFFFFF"></path>
                            <path d="M49.7347093,97.1889873 C49.7347093,97.1889873 27.5552715,131.998383 33.1001309,143.088102 C33.1001309,143.088102 26.6311282,136.311051 26.3230805,125.52938 C26.0150327,114.747709 26.0150327,168.039969 38.0288949,191.451598 C38.0288949,191.451598 -2.59366962,145.570966 0.178221024,74.8881017 C2.95011167,4.20523681 30.1571198,4.82826338 41.2479168,9.21840585 C41.2479168,9.21840585 70.7193839,-13.400231 110.130782,12.4757797 C110.130782,12.4757797 142.457081,11.8596843 130.443219,59.2990374 C118.429357,106.738467 88.2406777,180.669927 72.2221948,191.451598 C72.2221948,191.451598 99.3303966,141.855911 94.0935849,122.75695 C94.0935849,122.75695 87.6245822,140.931767 84.5441047,143.088102 C81.4636273,145.244436 94.7096804,108.894802 87.6245822,105.506276 C80.539484,102.117751 49.7347093,97.1889873 49.7347093,97.1889873" id="Fill-87" fill="#393342"></path>
                            <path d="M49.7347093,97.1889873 C49.7347093,97.1889873 27.5552715,131.998383 33.1001309,143.088102 C33.1001309,143.088102 26.6311282,136.311051 26.3230805,125.52938 C26.0150327,114.747709 26.0150327,168.039969 38.0288949,191.451598 C38.0288949,191.451598 -2.59366962,145.570966 0.178221024,74.8881017 C2.95011167,4.20523681 30.1571198,4.82826338 41.2479168,9.21840585 C41.2479168,9.21840585 70.7193839,-13.400231 110.130782,12.4757797 C110.130782,12.4757797 142.457081,11.8596843 130.443219,59.2990374 C118.429357,106.738467 88.2406777,180.669927 72.2221948,191.451598 C72.2221948,191.451598 99.3303966,141.855911 94.0935849,122.75695 C94.0935849,122.75695 87.6245822,140.931767 84.5441047,143.088102 C81.4636273,145.244436 94.7096804,108.894802 87.6245822,105.506276 C80.539484,102.117751 49.7347093,97.1889873 49.7347093,97.1889873 Z" id="Stroke-89" stroke="#1C1C1C" stroke-width="3" stroke-linecap="round" stroke-linejoin="round"></path>
                            <path d="M99.0909357,75.5116365 C100.262672,67.6979284 100.63695,59.3867231 98.7142703,53.1380516 C93.7855064,37.1195687 53.1232037,25.7218021 25.7069542,44.2046669 C25.7069542,44.2046669 1.67922988,107.354532 44.8059145,118.136203 C80.3389141,127.019376 90.3590913,108.090997 92.7863535,101.149372 C99.757705,100.864043 107.712422,99.6186061 108.253739,84.1930381 C108.68593,71.8749018 103.396288,73.1412861 99.0909357,75.5116365" id="Fill-91" fill="#FBB6A1"></path>
                            <path d="M99.0909357,75.5116365 C100.262672,67.6979284 100.63695,59.3867231 98.7142703,53.1380516 C93.7855064,37.1195687 53.1232037,25.7218021 25.7069542,44.2046669 C25.7069542,44.2046669 1.67922988,107.354532 44.8059145,118.136203 C80.3389141,127.019376 90.3590913,108.090997 92.7863535,101.149372 C99.757705,100.864043 107.712422,99.6186061 108.253739,84.1930381 C108.68593,71.8749018 103.396288,73.1412861 99.0909357,75.5116365 Z" id="Stroke-93" stroke="#1C1C1C" stroke-width="3"></path>
                            <path d="M23.2512514,59.7315595 C23.2512514,59.7315595 33.6735849,50.6217405 37.3701579,53.3941702 C41.0667308,56.1665999 85.0502503,41.9426492 85.0502503,41.9426492 L90.4642665,39.0459992 C90.4642665,39.0459992 37.4128225,21.9482711 28.7874856,28.7253215 C20.1621486,35.502372 17.9376588,66.2001771 17.9376588,66.2001771 L23.2512514,59.7315595 Z" id="Fill-95" fill="#393342"></path>
                            <g id="Group-100" transform="translate(7.855218, 34.655372)">
                                <path d="M86.2383673,0.0247439353 C86.2383673,0.0247439353 71.4520755,24.0275934 21.2402926,27.7241663 C21.2402926,27.7241663 31.4058683,19.4068772 29.2495341,18.4827339 C27.0931998,17.5585907 2.44938005,28.3402618 4.91376203,60.0692568 C4.91376203,60.0692568 -5.90587601,54.2162726 4.74079322,23.7195456" id="Fill-97" fill="#393342"></path>
                                <path d="M86.2383673,0.0247439353 C86.2383673,0.0247439353 71.4520755,24.0275934 21.2402926,27.7241663 C21.2402926,27.7241663 31.4058683,19.4068772 29.2495341,18.4827339 C27.0931998,17.5585907 2.44938005,28.3402618 4.91376203,60.0692568 C4.91376203,60.0692568 -5.90587601,54.2162726 4.74079322,23.7195456" id="Stroke-99" stroke="#1C1C1C" stroke-width="3" stroke-linecap="round" stroke-linejoin="round"></path>
                            </g>
                            <path d="M108.744575,16.2165807 L96.7317135,31.9239353" id="Stroke-101" stroke="#1C1C1C" stroke-width="3" stroke-linecap="round" stroke-linejoin="round"></path>
                            <path d="M44.8951405,84.8292876 C44.8951405,84.8292876 52.0585599,82.46402 56.8198229,86.8540855" id="Stroke-103" stroke="#1C1C1C" stroke-width="3" stroke-linecap="round" stroke-linejoin="round"></path>
                            <path d="M84.98737,87.7117828 L93.929303,80.2463227 C93.929303,80.2463227 93.3943781,67.9860223 103.329919,70.6495572" id="Stroke-105" stroke="#1C1C1C" stroke-width="3" stroke-linecap="round" stroke-linejoin="round"></path>
                            <path d="M76.8459145,84.8292876 C76.8459145,86.960747 74.96536,88.6887409 72.6456835,88.6887409 C70.3260839,88.6887409 68.4455295,86.960747 68.4455295,84.8292876 C68.4455295,82.6977513 70.3260839,80.9698344 72.6456835,80.9698344 C74.96536,80.9698344 76.8459145,82.6977513 76.8459145,84.8292876" id="Fill-109" fill="#000000"></path>
                            <path d="M35.9618329,80.969819 C35.9618329,83.1013554 34.0812784,84.8292722 31.7616018,84.8292722 C29.4420023,84.8292722 27.5614478,83.1013554 27.5614478,80.969819 C27.5614478,78.8383596 29.4420023,77.1103658 31.7616018,77.1103658 C34.0812784,77.1103658 35.9618329,78.8383596 35.9618329,80.969819" id="Fill-113" fill="#000000"></path>
                            <path d="M46.4692183,103.972661 C46.4692183,103.972661 46.3309819,104.848209 46.3838121,105.848209 C46.4491952,107.087101 46.8079168,108.516981 48.086315,108.708741 C50.3965961,109.055295 53.8619022,108.708741 53.8619022,108.708741 C53.8619022,108.708741 52.3603235,102.702118 46.4692183,103.972661" id="Fill-115" fill="#000000"></path>
                            <path d="M81.3590913,36.4407085 C81.3590913,36.4407085 78.0526608,39.2779823 81.3590913,40.9945013 C84.6655218,42.7110974 80.9686407,46.7434424 79.1201232,47.7310435" id="Stroke-117" stroke="#1C1C1C" stroke-width="3" stroke-linecap="round" stroke-linejoin="round"></path>
                            <path d="M104.417998,84.6239738 C104.417998,84.6239738 95.2252368,83.1464228 98.2044436,87.212114 C101.18365,91.2776511 96.7316673,93.0152715 96.7316673,93.0152715" id="Stroke-119" stroke="#1C1C1C" stroke-width="3" stroke-linecap="round"></path>
                        </g>
                        <path d="M28,78.5 C28,78.5 33.5434783,74.5 36.5,80" id="Path-2" stroke="#000000" stroke-width="3" stroke-linecap="round" stroke-linejoin="round"></path>
                        <g id="Group-132" transform="translate(46.979592, 107.063535)">
                            <mask id="mask-6" fill="white">
                                <use xlink:href="#path-5"></use>
                            </mask>
                            <g id="Clip-131"></g>
                            <path d="M0.0105660377,0.879699653 C0.0105660377,0.879699653 0.854693878,-0.465775895 1.5477243,0.207077397 C2.24075472,0.879699653 2.46470543,0.8374201 3.00378899,0.644890258 C3.54287255,0.452360416 4.85207547,1.53052753 5.00609935,2.10811706 C5.16012322,2.68570658 5.00609935,2.73083558 5.00609935,2.73083558 C5.00609935,2.73083558 1.02188679,4.54154024 0.0105660377,0.879699653" id="Fill-130" fill="#F84277" mask="url(#mask-6)"></path>
                        </g>
                        <path d="M69,82.5 C69,82.5 74.5434783,78.5 77.5,84" id="Path-2" stroke="#000000" stroke-width="3" stroke-linecap="round" stroke-linejoin="round"></path>
                        <polygon id="Fill-121" fill="#5B5958" style="mix-blend-mode: overlay;" opacity="0.556329257" points="85.6057759 76.4800924 58.8012322 93.9564112 60.6495187 74.9398537"></polygon>
                        <polygon id="Stroke-123" stroke="#1C1C1C" stroke-width="3" stroke-linecap="round" stroke-linejoin="round" points="84.6122218 97.9619099 57.4382518 94.7271005 59.7148787 73.5788525 87.0108356 75.4885175"></polygon>
                        <polygon id="Fill-125" fill="#5B5958" style="mix-blend-mode: overlay;" opacity="0.556329257" points="42.9923065 72.7561494 16.1877628 90.2323912 18.0360493 71.2159107"></polygon>
                        <polygon id="Stroke-127" stroke="#1C1C1C" stroke-width="3" stroke-linecap="round" stroke-linejoin="round" points="44.5002079 93.2011629 16.1877705 89.5928456 16.4678629 69.1735156 47.2726377 72.8700886"></polygon>
                    </g>
                </g>
            </g>
        </g>
    </g>
</svg>